<?xml version="1.0" encoding="UTF-8"?>
<svg id="Layer_1" xmlns="http://www.w3.org/2000/svg" version="1.1" viewBox="0 0 841.89 131.45">
  <!-- Generator: Adobe Illustrator 29.3.1, SVG Export Plug-In . SVG Version: 2.1.0 Build 151)  -->
  <defs>
    <style>
      .st0 {
        fill: #1d1e2b;
      }

      .st1 {
        fill: #7499ac;
      }
    </style>
  </defs>
  <path class="st0" d="M167.55,12.28C158.98,4.09,145.67,0,127.64,0H0v29.73h120.79c6.48,0,11.14,1.45,13.99,4.38,2.86,2.92,4.29,6.73,4.29,11.43v3.61c0,5.08-1.32,9.12-4.01,12.09-2.67,2.99-7.42,4.49-14.27,4.49H0v65.72h41.34v-36.01h86.31c18.03,0,31.34-4.35,39.91-13.04,8.59-8.71,12.86-20.8,12.86-36.29,0-14.36-4.28-25.63-12.86-33.82Z"/>
  <path class="st0" d="M206.24,0h41.34v131.45h-41.34V0Z"/>
  <polygon class="st1" points="391.34 0 307.9 62.11 394.77 131.44 336.86 131.44 273.04 79.44 273.04 47.43 336.67 0 391.34 0"/>
  <path class="st1" d="M492.01,0l-83.44,62.11,86.87,69.34h-57.91l-63.82-52v-32.01L437.34,0h54.67Z"/>
  <path class="st0" d="M519.71-.01v28.96h158.87V-.01h-158.87Z"/>
  <polygon class="st0" points="679.35 102.48 679.35 131.44 519.71 131.44 519.71 50.86 650.59 50.86 650.59 78.47 549.47 78.47 549.47 102.78 679.35 102.48"/>
  <path class="st0" d="M841.89,131.44h-48.01l-33.54-44h-31.54v44h-30.28V59.25h78.4c7.24,0,12.18-1.34,14.86-4.01,2.67-2.67,3.99-6.3,3.99-10.86v-2.49c0-4.44-1.32-7.96-3.99-10.57-2.68-2.59-7.62-3.9-14.86-3.9h-78.4V-.01h88.49c15.88,0,28.21,3.65,36.97,10.96,8.75,7.3,13.13,17.94,13.13,31.91,0,11.04-2.67,20.09-8,27.13-5.33,7.05-12.95,11.98-22.86,14.77l35.63,46.67Z"/>
</svg>